PathFileType	4	(X/Y/Z)	C:\Users\Basilio\Documents\Thesis Gigler\squatting_fais\c3dfiles\040\SLS_pre_back3\markers_experimental.trc
DataRate	CameraRate	NumFrames	NumMarkers	Units	OrigDataRate	OrigDataStartFrame	OrigNumFrames
200.000000	200.000000	4	63	mm	200.000000	1233	1410
Frame#	Time	FHD			LBHD			RBHD			C7			T10			CLAV			LSHO			LUUPA			LMUPA			LDUPA			LLEP			LMEP			LRAD			LUL			LRFIN			RSHO			RUPA1			RMUPA			RDUPA			RLEP			RMEP			RRAD			RUL			RUFIN			LASI			RASI			USACR			LSACR			RSACR			LTHI1			LTHI2			LTHI3			LTHI4			LLFC			LMFC			LTIB1			LTIB2			LTIB3			LTIB4			LLMAL			LMMAL			LHEE			LMT1			LMT2			LMT5			RTHI			RTHI2			RTHI3			RTHI4			RLFC			RMFC			RTIB1			RTIB2			RTIB3			RTIB4			RLMAL			RMMAL			RHEE			RMT1			RMT2			RMT5			*61			*62			
		X1	Y1	Z1	X2	Y2	Z2	X3	Y3	Z3	X4	Y4	Z4	X5	Y5	Z5	X6	Y6	Z6	X7	Y7	Z7	X8	Y8	Z8	X9	Y9	Z9	X10	Y10	Z10	X11	Y11	Z11	X12	Y12	Z12	X13	Y13	Z13	X14	Y14	Z14	X15	Y15	Z15	X16	Y16	Z16	X17	Y17	Z17	X18	Y18	Z18	X19	Y19	Z19	X20	Y20	Z20	X21	Y21	Z21	X22	Y22	Z22	X23	Y23	Z23	X24	Y24	Z24	X25	Y25	Z25	X26	Y26	Z26	X27	Y27	Z27	X28	Y28	Z28	X29	Y29	Z29	X30	Y30	Z30	X31	Y31	Z31	X32	Y32	Z32	X33	Y33	Z33	X34	Y34	Z34	X35	Y35	Z35	X36	Y36	Z36	X37	Y37	Z37	X38	Y38	Z38	X39	Y39	Z39	X40	Y40	Z40	X41	Y41	Z41	X42	Y42	Z42	X43	Y43	Z43	X44	Y44	Z44	X45	Y45	Z45	X46	Y46	Z46	X47	Y47	Z47	X48	Y48	Z48	X49	Y49	Z49	X50	Y50	Z50	X51	Y51	Z51	X52	Y52	Z52	X53	Y53	Z53	X54	Y54	Z54	X55	Y55	Z55	X56	Y56	Z56	X57	Y57	Z57	X58	Y58	Z58	X59	Y59	Z59	X60	Y60	Z60	X61	Y61	Z61	X62	Y62	Z62	X63	Y63	Z63	

1234	6.165	-190.3938903808594	1750.587158203125	-1231.069213867188	-320.3081359863282	1720.50048828125	-1275.11279296875	-381.8240051269532	1694.6220703125	-1144.729858398438	-395.0778198242189	1552.584594726563	-1192.589965820313	-379.3874511718751	1228.274047851563	-1168.886108398438	-258.2762451171876	1502.228759765625	-1194.734008789063	-309.8356628417969	1548.045776367188	-1341.301879882813	-142.3770904541016	1495.35498046875	-1410.62939453125	-113.5879669189453	1511.6787109375	-1374.26123046875	-74.48381805419923	1480.625732421875	-1408.591918945313	-18.18937110900879	1452.645874023438	-1403.759033203125	-31.10015678405762	1402.798095703125	-1361.574340820313	244.8946228027344	1489.762329101563	-1278.263061523438	255.0361633300782	1478.42333984375	-1353.131713867188	331.2407226562501	1500.327758789063	-1267.322143554688	-294.9336853027344	1537.834106445313	-1050.080688476563	-129.0292510986328	1465.881103515625	-986.642028808594	-101.6138229370117	1490.60107421875	-1018.442260742188	-60.8818702697754	1451.146606445313	-996.6338500976565	-0.2681336402893067	1441.974243164063	-1012.640563964844	-14.83184719085694	1388.651245117188	-1064.67138671875	242.6685028076172	1501.425659179688	-1171.440795898438	262.0359802246094	1484.07958984375	-1099.181762695313	336.6149902343751	1508.03173828125	-1182.504272460938	-184.4203796386719	1080.074462890625	-1296.056030273438	-158.5091094970703	1080.134521484375	-1064.77685546875	-359.5561218261719	1101.040893554688	-1153.86083984375	-363.9519042968751	1070.717163085938	-1180.179931640625	-356.3515625000001	1070.090454101563	-1123.929931640625	-305.2368774414063	814.905456542969	-1318.145751953125	-265.0800170898438	739.7122802734376	-1326.715087890625	-221.5799560546876	745.4882202148439	-1339.408081054688	-283.4316101074219	687.2009277343751	-1307.620239257813	-258.4144592285157	553.1255493164064	-1297.007080078125	-239.7996368408204	542.3185424804689	-1167.004028320313	-242.2792663574219	325.6629333496094	-1238.896362304688	-319.4729003906251	294.7191772460938	-1269.960815429688	-277.4979858398438	282.8179931640626	-1258.685913085938	-276.8845214843751	207.3802490234376	-1215.52001953125	-353.9626464843751	126.1104125976563	-1212.9794921875	-316.7250366210938	145.2169342041016	-1136.048950195313	-413.7027282714845	96.73165130615237	-1159.7197265625	-200.9075317382813	58.19819641113283	-1137.390991210938	-203.3746032714844	49.16857910156251	-1181.972778320313	-253.0853271484376	33.84018707275391	-1229.998413085938	-168.4121704101563	807.4170532226565	-981.8740234375002	-125.3717880249024	756.2274780273439	-983.5906372070315	-93.63574218750001	763.7512207031251	-989.3497314453127	-141.5165100097657	674.7991333007814	-984.589538574219	-143.1310424804688	565.4427490234376	-998.3084716796877	-133.8243865966797	553.2818603515626	-1123.774536132813	-260.7782287597657	426.356903076172	-1031.559204101563	-365.1147155761719	457.1631164550782	-1027.76806640625	-345.7760314941407	414.3094482421876	-1030.007446289063	-373.8240661621094	375.7547607421876	-1066.587036132813	-504.2111816406251	364.3022460937501	-1067.502685546875	-466.7755432128907	355.5558166503907	-1148.030517578125	-559.6951904296876	397.5840148925782	-1138.564575195313	-457.7392883300782	200.4299774169922	-1127.275512695313	-468.3781127929689	201.2578277587891	-1090.062622070313	-523.2304077148439	223.0604095458985	-1050.399780273438	nan	nan	nan	nan	nan	nan	
1235	6.17	-190.0696411132813	1750.615234375	-1231.396484375	-319.9458618164063	1720.572631835938	-1275.28125	-381.3554382324219	1694.661376953125	-1144.939331054688	-394.7415771484376	1552.6572265625	-1192.825805664063	-379.2927246093751	1228.338012695313	-1168.831787109375	-258.0144042968751	1502.293212890625	-1194.790893554688	-309.3380126953126	1547.8125	-1341.466552734375	-142.00537109375	1494.779052734375	-1410.919677734375	-113.37646484375	1511.095703125	-1374.491088867188	-74.35204315185548	1479.712524414063	-1409.02001953125	-18.10624504089356	1451.375610351563	-1404.093017578125	-31.24872016906739	1401.551513671875	-1361.989379882813	245.6360626220704	1487.892700195313	-1279.2626953125	254.9309234619141	1476.170288085938	-1354.02099609375	331.6911315917969	1498.435913085938	-1268.470092773438	-294.6211242675782	1537.491333007813	-1050.314575195313	-129.105712890625	1465.604125976563	-986.0557250976565	-101.5443572998047	1490.332275390625	-1018.045104980469	-60.94099807739259	1450.675048828125	-995.921813964844	-0.5109357833862306	1442.106689453125	-1012.281555175781	-15.77675914764405	1387.548217773438	-1064.343994140625	242.7762145996094	1499.640258789063	-1171.193237304688	262.3798522949219	1482.718505859375	-1098.766967773438	336.6914672851563	1506.6201171875	-1182.406494140625	-184.2519073486328	1080.169677734375	-1295.9375	-158.462387084961	1080.170532226563	-1064.550537109375	-359.4918823242188	1101.115356445313	-1153.751586914063	-363.7643127441407	1070.729736328125	-1180.195190429688	-356.2937316894532	1070.26025390625	-1123.872924804688	-305.0840454101563	814.9822998046877	-1318.135864257813	-264.8295593261719	739.7304687500001	-1326.711059570313	-221.4584655761719	745.5344848632814	-1339.364501953125	-283.2735595703126	687.2984008789064	-1307.634399414063	-258.3677673339844	553.2639160156251	-1297.025390625	-239.8587341308594	542.4058227539064	-1167.071533203125	-242.3267517089844	325.7032165527344	-1239.016967773438	-319.5298461914063	294.8728332519532	-1270.0654296875	-277.5093078613282	282.9249267578126	-1258.800048828125	-276.9072570800782	207.5782623291016	-1215.833251953125	-353.6592712402344	125.9369277954102	-1213.067749023438	-316.6230773925782	145.261459350586	-1136.234497070313	-414.0726928710939	97.20777893066409	-1159.771118164063	-200.9429931640626	58.22544479370119	-1137.4794921875	-203.339340209961	49.17066192626955	-1182.0703125	-253.0670166015626	33.73344421386719	-1230.0498046875	-168.4663238525391	807.4802856445315	-981.7312622070315	-125.4557800292969	756.1581420898439	-983.415954589844	-93.69210052490236	763.6735839843751	-989.1628417968752	-141.760971069336	674.9358520507814	-984.384948730469	-143.5804901123047	565.3570556640626	-998.3883056640627	-133.989242553711	553.2913818359376	-1123.566528320313	-260.9248657226563	426.5257263183595	-1031.281005859375	-365.2944946289063	457.4570617675782	-1027.4794921875	-346.8054199218751	413.9675903320314	-1030.133056640625	-373.9442443847657	376.0224304199219	-1066.24755859375	-504.485565185547	364.6990051269532	-1067.052856445313	-467.1151733398439	355.9966430664063	-1147.74462890625	-559.9802856445314	397.946502685547	-1138.177124023438	-458.2074584960939	200.9157867431641	-1126.91748046875	-468.8498535156251	201.805648803711	-1089.738159179688	-523.3071899414064	223.2366485595704	-1050.111938476563	nan	nan	nan	nan	nan	nan	
1236	6.175	-189.5786437988282	1750.499267578125	-1231.615234375	-319.6387023925782	1720.599487304688	-1275.467041015625	-380.9602050781251	1694.756225585938	-1145.105590820313	-394.5608520507814	1552.813598632813	-1192.997680664063	-379.1847839355469	1228.462646484375	-1168.800048828125	-257.9503479003907	1502.366088867188	-1194.819458007813	-308.6419372558594	1547.697021484375	-1341.614379882813	-141.75048828125	1494.13232421875	-1411.332641601563	-112.8028869628907	1509.98779296875	-1374.8740234375	-74.1038284301758	1478.781616210938	-1409.291625976563	-18.00945663452149	1450.036865234375	-1404.671752929688	-31.16393280029298	1400.138916015625	-1362.384887695313	245.5267028808594	1486.128784179688	-1280.2568359375	255.6499176025391	1473.442993164063	-1354.98486328125	331.8896484375001	1496.499389648438	-1269.531860351563	-294.4701843261719	1537.325805664063	-1050.51318359375	-129.0741119384766	1465.517456054688	-985.5588989257815	-101.7267303466797	1489.847290039063	-1017.842224121094	-61.06261825561525	1450.369384765625	-995.1944580078127	-0.6182226538658143	1441.716186523438	-1011.009155273438	-15.80385303497315	1386.903442382813	-1063.102294921875	242.7072753906251	1497.769409179688	-1170.709106445313	262.0489807128907	1481.026977539063	-1098.356689453125	336.4154663085938	1505.190673828125	-1182.094604492188	-184.0755310058594	1080.3330078125	-1295.801391601563	-158.3902130126953	1080.262817382813	-1064.429321289063	-359.3739318847657	1101.185180664063	-1153.679565429688	-363.6872863769532	1070.84228515625	-1180.143676757813	-356.1740417480469	1070.292114257813	-1123.760986328125	-304.9653015136719	815.091247558594	-1318.1884765625	-264.7101135253907	739.8711547851564	-1326.712158203125	-221.3504486083985	745.6853637695314	-1339.301391601563	-283.1788330078126	687.3999023437501	-1307.699462890625	-258.3198547363282	553.3330688476564	-1297.062133789063	-239.8898010253907	542.4703369140626	-1167.104736328125	-242.1982879638672	325.9907226562501	-1239.128295898438	-319.5750427246094	295.0009460449219	-1270.066528320313	-277.4490051269532	283.0627441406251	-1259.02734375	-276.9770812988282	207.9598999023438	-1215.923217773438	-353.8500061035157	126.2103652954102	-1213.076416015625	-316.5967712402344	145.3358001708985	-1136.354858398438	-414.0816040039064	97.26393890380862	-1159.84033203125	-200.846420288086	58.2385711669922	-1137.516235351563	-203.1718444824219	49.32177352905275	-1182.2041015625	-253.0094299316407	33.71431732177735	-1230.114013671875	-168.4345855712891	807.609802246094	-981.522155761719	-125.4500350952149	756.3085327148439	-983.122497558594	-93.91825103759767	763.6357421875001	-989.0071411132815	-141.9020080566407	675.0357055664064	-984.164245605469	-143.1957550048828	565.5220336914064	-997.8306884765627	-134.1080932617188	553.3256835937501	-1123.322265625	-260.9616394042969	426.7162475585939	-1030.576904296875	-365.6587829589844	457.9049377441407	-1027.192993164063	-347.2786865234376	414.3856506347657	-1029.833984375	-373.9773254394532	376.1809082031251	-1065.885864257813	-504.6466064453126	365.0458068847657	-1066.748657226563	-467.3917236328126	356.3825378417969	-1147.41064453125	-560.2413330078126	398.7943115234376	-1137.693237304688	-458.9186096191407	201.1294555664063	-1126.414672851563	-468.9797973632814	201.9548797607422	-1089.51806640625	-523.5239257812501	223.8336029052735	-1049.832153320313	nan	nan	nan	nan	nan	nan	
1237	6.18	-189.0657806396485	1750.39501953125	-1232.026123046875	-319.2484741210938	1720.741333007813	-1275.662109375	-380.7010803222657	1695.058715820313	-1145.160034179688	-394.2733154296876	1552.928466796875	-1193.142211914063	-379.0476379394532	1228.608520507813	-1168.764282226563	-257.7767639160157	1502.461059570313	-1194.889282226563	-308.3415527343751	1547.527221679688	-1341.75341796875	-141.5351867675782	1493.442749023438	-1411.605346679688	-112.5879898071289	1508.923095703125	-1375.064453125	-73.99179840087892	1477.640869140625	-1409.747680664063	-18.07061195373536	1448.5888671875	-1405.266357421875	-31.24264144897462	1398.584716796875	-1362.755249023438	246.8344421386719	1483.961303710938	-1281.447021484375	255.5037536621094	1470.918212890625	-1355.916259765625	332.5213623046876	1493.885498046875	-1270.4482421875	-294.4547424316407	1537.20703125	-1050.587036132813	-129.0276794433594	1465.418579101563	-985.0942382812502	-101.5674438476563	1489.272583007813	-1017.449890136719	-60.97636032104494	1449.955078125	-994.4688720703127	-0.7714098095893862	1440.896606445313	-1010.026794433594	-15.93763542175293	1385.503295898438	-1061.329345703125	242.8104095458985	1495.775268554688	-1170.321044921875	262.3753662109376	1479.785400390625	-1097.54638671875	336.2558288574219	1503.619262695313	-1181.81591796875	-183.9188995361328	1080.3505859375	-1295.56298828125	-158.3956604003907	1080.237548828125	-1064.222778320313	-359.2825317382813	1101.351318359375	-1153.668701171875	-363.5704345703126	1070.959228515625	-1180.099487304688	-356.0796813964844	1070.4130859375	-1123.695556640625	-304.8019409179688	815.1922607421877	-1318.230590820313	-264.5515747070313	739.9638061523439	-1326.599487304688	-221.0464477539063	745.7182006835939	-1339.272094726563	-283.0194396972657	687.4971313476564	-1307.68798828125	-258.2635498046876	553.3823242187501	-1297.08984375	-240.0063934326172	542.5675659179689	-1166.968017578125	-242.2291107177735	325.9284667968751	-1239.244750976563	-319.6838684082032	295.1675720214844	-1270.147705078125	-277.2314147949219	283.2047424316407	-1259.281372070313	-276.9864501953126	208.3126220703126	-1216.371459960938	-353.9297180175782	126.2879333496094	-1213.0654296875	-316.5637207031251	145.4656982421875	-1136.504760742188	-413.9766540527345	97.21888732910159	-1159.913452148438	-201.1978149414063	58.57880020141603	-1137.362548828125	-203.3392181396485	49.18552398681642	-1182.223266601563	-253.0409088134766	33.72555541992188	-1230.197875976563	-168.5493927001953	807.6420898437502	-981.3137207031252	-125.4791412353516	756.4264526367189	-982.9377441406252	-94.02573394775392	763.6715698242189	-988.7527465820315	-141.9614868164063	675.1169433593751	-983.9912719726565	-143.4117431640625	565.6323242187501	-997.669372558594	-134.3078308105469	553.3613891601564	-1123.086669921875	-261.4752197265626	426.6467590332032	-1031.505615234375	-365.9190063476563	458.2345581054689	-1026.96923828125	-347.4309387207032	414.545867919922	-1029.68994140625	-374.3401489257813	376.4664916992188	-1065.6806640625	-505.2637329101564	365.2151489257813	-1066.619384765625	-467.6577453613282	356.7749023437501	-1147.18505859375	-560.3874511718751	399.2817993164064	-1137.458618164063	-459.2032165527345	201.0071868896485	-1125.83349609375	-469.3200683593751	202.1183776855469	-1089.150512695313	-523.7462158203126	224.3028411865235	-1049.518310546875	nan	nan	nan	nan	nan	nan	
